<svg xmlns="http://www.w3.org/2000/svg" viewBox="0 0 1910.99 364.08"><defs><style>.cls-1{fill:#fff}</style></defs><g id="Layer_2" data-name="Layer 2"><g id="レイヤー_1" data-name="レイヤー 1"><g id="Horizontal"><g id="Typo"><path class="cls-1" d="M611.43 118.24c-12.63-21.21-32.79-21.76-38-21.76-23.95 0-37.6 17.28-37.6 37.6 0 21.83 15.16 29.11 35.48 39.12 20 9.7 30 14 40.33 21.23 8.8 6.06 21.53 16.67 21.53 39.11 0 34-28.5 59.14-63.07 59.14-26.08 0-39.42-12.43-47-21.23a66.16 66.16 0 01-13-22.14l11.62-5.17a69.79 69.79 0 0010.82 19.12c9.09 11.53 24 17.29 37.9 17.29 27.29 0 48.82-20 48.82-46.7 0-10.92-4.24-22.44-19.71-31.84-5.76-3.34-17.59-9.4-34.27-17.59-20-9.71-30-15.16-37-26.69a43.46 43.46 0 01-6.37-23c0-23.35 15.77-50.34 51.86-50.34 20.31 0 38.81 9.7 49.12 28.81zm106.94 173.22l-58.83-125.84h14l51.81 110.08 45.18-110.08h14l-81.32 193.47h-14zm110.07-125.84V185c5.77-10.32 17-22.14 37.91-22.14 22.14 0 31.54 13 34.26 17.28 5.46 8.8 6.07 20.32 6.07 31.24v77.93h-12.13v-77.9c0-8.49-.3-17.89-4.85-24.87-2.73-4.55-9.4-12.13-24.26-12.13-17 0-25.78 9.1-30.32 17.29-5.46 9.7-6.68 21.22-6.68 33.35v64.29h-12.13V171zm181.92 22.02c-4.34-9.19-12.63-13.23-21.2-13.23-13.95 0-20.93 10.62-20.93 19.71 0 12.13 9.7 16.07 21.84 20.93 12.43 4.85 24 8.18 31.84 18.19 5.15 6.37 6.37 13 6.37 20 0 28.2-21.23 39.42-40.34 39.42-20.13 0-36.79-11.56-42.37-31.3l11.43-5.07c4.25 16.37 17.29 24.86 30.93 24.86 15.77 0 27.6-11.22 27.6-27.29 0-14-8.79-19.1-27.6-26.68-12.43-5.16-21.53-9.1-27-16.38a26 26 0 01-5.46-16.07c0-18.8 14.26-31.84 33.06-31.84 14.56 0 26.69 6.67 32.45 20zm68.56 171.45h-12.13V171l12.13-5.4v21.53c11.82-16.07 28.81-24.26 48.52-24.26 37.3 0 60 27.9 60 63.68 0 36.39-23 66.11-60.65 66.11-30.63 0-44.27-19.41-47.91-25.48zm95.82-132.52c0-34-22.44-52.16-47.91-52.16-24.26 0-48.52 17.29-48.52 51.55 0 30.94 17 55.19 48.22 55.19s48.21-24.25 48.21-54.58zm60.95 2.43c0 31.53 23 52.15 49.13 52.15 19.51 0 34.42-11.25 42.46-27l10.91 4.86c-7.28 14-23.66 33.66-54.28 33.66-38.52 0-61-28.51-61-64.59 0-43.06 29.71-65.2 60-65.2 33.36 0 58.52 26.68 58.52 66.11zm93.1-11.53c-3-24.56-21.23-43.06-45.79-43.06-25.18 0-43.07 19.11-46.4 43.06zM1484 194.73c-8.19-9.4-22.44-20.32-42.76-20.32-30.32 0-51.55 23.35-51.55 53.68 0 35.48 27 53.06 51 53.06 19.71 0 35.17-11.52 44.88-22.13v16.37a67.47 67.47 0 01-45.19 17.29c-37.3 0-63.37-27.6-63.37-64.29s24.56-65.5 64.28-65.5a65 65 0 0142.71 15.77zm61.59-17.59v112.2h-12.13v-112.2h-13.65v-11.52h13.65v-38.88l12.13-5.4v44.28h21.53v11.52zm54.58-52.76c0-6.68 4.86-11.22 10.92-11.22s10.91 4.54 10.91 11.22-4.86 11.21-10.92 11.21-10.91-4.54-10.91-11.21zm17 41.24v123.72H1605V171zm51.23 0l43.66 102.8 43.07-102.8h13.34l-56.41 131.3-57-131.3zM1805.16 229c0 31.53 23 52.15 49.12 52.15 19.52 0 34.43-11.25 42.46-27l10.91 4.86c-7.27 14-23.65 33.66-54.28 33.66-38.51 0-60.95-28.51-60.95-64.59 0-43.06 29.72-65.2 60-65.2 33.36 0 58.53 26.68 58.53 66.11zm93.09-11.53c-3-24.56-21.22-43.06-45.79-43.06-25.17 0-43.06 19.11-46.39 43.06z" id="Typo_edit_" data-name="Typo(edit)"/></g><g id="LOGO"><g id="下軌道_S_" data-name="下軌道(S)"><path id="軌道" class="cls-1" d="M10.45 122.05C-1.8 151.68-15.62 198.93 47.5 235.57c56 32.48 186 84.07 205.82 94.2s28.46 24.41 5.28 34.31c30.28-10.13 37.08-21.4 37.08-33.66 0-9.72-4.27-22.38-50.73-42.82S90.84 219.31 48.86 193.48s-45.51-46.32-38.41-71.43z"/><path id="軌道-2" data-name="軌道" class="cls-1" d="M264.51 336.91c10.91 9 12.2 19.44-5.91 27.17 30.28-10.13 37.08-21.4 37.08-33.66 0-4.5-.92-9.63-6.52-15.88z"/><path id="軌道-3" data-name="軌道" class="cls-1" d="M10.45 122.05c-8.62 20.86-18 50.45-.81 78.92l15.5-25.07C5.81 157.69 5 141.21 10.45 122.05z"/></g><g id="上軌道_S_" data-name="上軌道(S)"><path id="軌道-4" data-name="軌道" class="cls-1" d="M206.24 217.15c67.21 28.88 153.45 61.34 117.7 102.61 25.34-22.15 25.18-38.81 25.18-47.62 0-40.8-69.1-63.36-160.78-103.7C124.4 140.31 12.38 91 70.47 39.28 63 45.07 29.22 72.22 29.22 96.59c-.63 36.32 57.7 69.28 177.02 120.56z"/><path id="軌道-5" data-name="軌道" class="cls-1" d="M65.44 95.54c-14.61-17.75-16.79-36.83 5-56.26C63 45.07 29.22 72.22 29.22 96.59c-.14 8.58 3 17 9.45 25.46z"/><path id="軌道-6" data-name="軌道" class="cls-1" d="M316.73 273.62c16.16 14.17 21.68 29.43 7.21 46.14 25.34-22.15 25.18-38.81 25.18-47.62 0-9.32-3.6-17.69-10.26-25.53z"/></g><path class="cls-1" d="M280.49 46.7a6.05 6.05 0 00-2.45-.6c-1.54.09-.89 1.1-.26 1.69 1.7 1.59 6.17 3.13 6.26 1.88 0-.8-1.83-2.23-3.55-3m-10.26-7.81a6.77 6.77 0 00-2.51-.53c-1.6.12-1 1.14-.18 1.79 1.95 1.57 6.4 2.76 6.16 1.36-.13-.74-1.72-1.94-3.47-2.62m-10.49-7.43a6.62 6.62 0 00-2.44-.43c-1.53.15-1 1.08-.25 1.68 1.87 1.51 6.56 2.62 6.3 1.2-.14-.75-1.72-1.83-3.61-2.46m-10.66-6.97a8 8 0 00-2.38-.34c-1.51.16-1 1-.43 1.44 1.73 1.45 6.65 2.45 6.41 1.08-.13-.8-2-1.72-3.6-2.18m11.2 15.14a5.39 5.39 0 00-2.38-.19c-1.38.25-1.29 1.22.2 2.24 2.19 1.51 6.35 2.07 5.93.47-.23-.87-1.95-2-3.75-2.52m-10.71-7.14a5.58 5.58 0 00-2.51-.18c-1.7.41-.79 1.54.23 2.19 2.15 1.38 6.14 1.87 6 .43-.1-.85-1.76-2-3.7-2.44m-10.43.63a5 5 0 00-2.44.12c-1.48.52-1.12 1.8.75 2.73 2.72 1.34 6.19.9 5.55-.7-.37-.92-2.06-1.86-3.86-2.15m-.58-7.4a6.22 6.22 0 00-2.54-.13c-1.75.44-.76 1.54.28 2.12 2.23 1.27 6.21 1.52 5.83.06-.2-.76-1.74-1.65-3.57-2.05m.42-7.38a9.15 9.15 0 00-2.75-.34c-1.64.17-.94.91-.69 1.13 1.72 1.52 6.76 2.29 6.57 1-.08-.59-1.37-1.33-3.13-1.8m-11.2 8.22a5.6 5.6 0 00-2.5.14c-1.47.53-1.12 1.79.72 2.6 2.34 1 6 .76 5.51-.77-.26-.87-1.87-1.71-3.73-2m-11.29-5.91a6 6 0 00-2.46.22c-1.66.67-1 1.76.52 2.38 2.42 1 6.11.6 5.59-.9-.28-.82-1.82-1.54-3.65-1.7m11.17-1.01a7 7 0 00-2.5 0c-1.62.41-1 1.28-.19 1.77 2.06 1.23 6.65 1.51 6.19 0-.22-.71-1.73-1.48-3.5-1.78m-22.29-4.29a6.88 6.88 0 00-2.65.29c-1.82.72-.93 1.56-.12 1.94 2.18 1 6.57.61 6-.89-.26-.68-1.59-1.23-3.23-1.34m11.55-1.13a8 8 0 00-2.7 0c-1.2.26-1.45.82-.63 1.39 1.86 1.29 6.63 1.36 6.46.09-.08-.61-1.43-1.26-3.13-1.5m11.26-1.39a9.08 9.08 0 00-2.5-.21c-1.39.13-1.26.55-.9.87 1.42 1.29 6.77 2 6.58.83-.1-.62-1.72-1.21-3.18-1.49M205.85 9.5a8.88 8.88 0 00-2.54.11c-1.76.42-1 1-.77 1.18 1.65 1.07 6.53 1 6.45-.09 0-.54-1.39-1-3.14-1.2M194 10.71a7.65 7.65 0 00-2.53.36c-1.73.68-1 1.39-.35 1.7 2 .9 6.61.37 6.09-1-.23-.6-1.55-1-3.21-1m23.64-2.7a11.91 11.91 0 00-2.49-.14c-1.38.13-1.32.46-1 .71 1.25 1 6.76 1.55 6.56.59-.1-.43-1.32-.9-3.05-1.16m-34.8-.88a8.5 8.5 0 00-2.43.4c-1.23.43-1.24 1.07-.54 1.41 1.58.77 6.44.19 6.13-1-.17-.66-1.81-.83-3.16-.77M195.28 6a11.47 11.47 0 00-2.66.14c-1.53.36-1.05.82-.87 1 1.24.9 6.61.66 6.39-.28-.1-.42-1.2-.73-2.86-.81m12-1.59a14.67 14.67 0 00-2.48-.08c-1.2.11-1.24.36-1.06.54.85.85 6.52 1.21 6.46.42 0-.39-1.49-.72-2.92-.88M184.32 3.4a12.57 12.57 0 00-2.37.22c-.93.19-1.32.51-.94.77 1 .68 6.33.28 6.27-.47 0-.42-1.55-.54-3-.52M172.1 5a10.69 10.69 0 00-2.64.47c-1 .35-1.32.85-.72 1.15 1.21.59 6.35-.1 6.11-1.13-.09-.43-1.12-.61-2.75-.49m24.6-3.16a18.17 18.17 0 00-2.24 0c-.85.07-1.28.22-1.13.39.46.55 6.22.73 6.35.21.06-.26-1.22-.52-3-.61M173.81 2a17.12 17.12 0 00-2.3.28c-1.16.25-1.15.45-1 .54.58.47 6.1-.09 6.1-.62 0-.22-1.17-.31-2.77-.2m-12.98 2.92a13.6 13.6 0 00-2.13.47c-1.41.51-.94.82-.84.88 1 .52 6.09-.51 6-1.22-.05-.36-1.55-.34-3-.13m25.5-4.55c-1.12 0-1.81.06-2.11.08-.72.06-1.11.15-1.15.25.2.34 5.65.28 6.14-.06-.11-.27-2.77-.27-2.88-.27m-9.72-.3c-.78 0-1.52.1-2.2.16a8.29 8.29 0 00-1.21.15 53.44 53.44 0 005.92-.38 18 18 0 00-2.51 0m-13.03 1.77c-1 .13-1.79.28-2.17.35-.78.17-1.11.27-1.18.37.41.39 5.78-.54 5.93-.79a10 10 0 00-2.58.07m-13.07 3.31a17.08 17.08 0 00-2.11.54c-1.18.41-1.22.59-1 .67.83.36 6-.83 5.84-1.34-.07-.21-1.28-.15-2.69.13m2.88-2.3c-.52.1-1.31.24-2.1.41s-.93.2-1.07.25a53 53 0 005.54-1 23.28 23.28 0 00-2.37.35m-13.15 3.35c-1.08.27-1.82.52-2.1.61-1 .34-1.06.44-1.08.48.47.25 5.19-1.13 5.52-1.45a10.91 10.91 0 00-2.33.4m-10.11 2.34c-.48.15-1.24.39-2.05.67s-1 .36-1 .37c.38 0 5.06-1.57 5.26-1.67-.16 0-1.27.34-2.18.63" id="上Dot"/><g id="大フクロウ"><path class="cls-1" d="M310.93 45a12.52 12.52 0 1012.52 12.52A12.53 12.53 0 00310.93 45z"/><path class="cls-1" d="M305.39 51.1a36.74 36.74 0 00-9.18-7c-6.32-3.73-16.33-5.64-22.31-9.35-22.43-13.91-41.46-30.22-50-32.18a190.39 190.39 0 0190.17 45.13c4.38 3.6-1.57 10.17-8.68 3.4z"/><path class="cls-1" d="M318.82 52.12a188.22 188.22 0 0137.41 50.63c-6.42-5-27.62-12-28.57-28.43-.43-7.57-7.48-11.55-8.76-13.11-4.98-6.08-1.46-10.37-.08-9.09zM302.74 67c-5.64-4.66-12.9-17.3-14.64-20.3-.87-1.5-1.62.28-.59-3s1.46-.51 3 0a37.59 37.59 0 0020.42 1.3 170.3 170.3 0 01-8.19 22z"/></g></g></g></g></g></svg>